<?xml version="1.0" encoding="utf-8"?>
<!-- Generator: Adobe Illustrator 18.1.1, SVG Export Plug-In . SVG Version: 6.00 Build 0)  -->
<svg version="1.1" id="Layer_1" xmlns="http://www.w3.org/2000/svg" xmlns:xlink="http://www.w3.org/1999/xlink" x="0px" y="0px"
	 viewBox="0 0 485.3 53.1" enable-background="new 0 0 485.3 53.1" xml:space="preserve">
<g>
	<g>
		<g>
			<g>
				<g id="XMLID_1_">
					<g>
						<g>
							<path fill="#FFFFFF" d="M62,17.2c0,5.8,0,11.6,0,17.4c-3.8,0.2-7.9,0-11.8,0.1c-0.9,0-1.8,0-2.7,0c-0.9,0-1.8,0-2.7,0
								c0,0.6,0,1.1,0,1.7c-0.8,0.8-1.9,1.9-2.9,2.2c0-2.3,0-4.5,0-6.8c5.8,0,11.5,0,17.2,0c0-3.9,0-7.9,0-11.8c-1,0-2.1,0-3.1,0
								c0-1.1-0.3-2-0.7-2.8C57.6,17.2,59.8,17.2,62,17.2z"/>
						</g>
						<g>
							<path fill="#FFFFFF" d="M56,20c0.3,4.8-1.3,8.3-3.3,11.2c-0.7,0-1.5,0-2.2,0c0.7-1.2,1.4-2.4,2-3.6c-0.3-0.7-1.3-1.1-1.4-1.7
								c0.7,0,1.3,0,2,0c2.5-6.5-0.6-13.9-8.4-12.7c0-0.5,0-1.1,0-1.6c0,0,0-0.1,0-0.1c2.1-0.3,4.1,0,5.8,0.6
								c0.6-0.3,1.1-1.1,1.7-1.1c0,0.7-0.1,1.3-0.2,1.9c1.4,1.2,2.7,2.5,3.4,4.4C55.7,18,56,18.9,56,20z"/>
						</g>
						<g>
							<path fill="#FFFFFF" d="M53.3,20c-3.8-0.1-7.8,0.1-11.5-0.1c0-4.5,0-8.9,0-13.4c0.9,0.1,2.1-0.1,2.9,0.1c0,1.6,0,3.3,0,4.9
								c0,0,0,0.1,0,0.1c-0.2,0.3-0.2,1.3,0,1.6c0,1.3,0,2.7,0,4c2.6,0,5.1,0,7.6,0C52.8,18,53.2,18.9,53.3,20z"/>
						</g>
						<g>
							<path fill="#FFFFFF" d="M47.5,34.7c0.9,0,1.8,0,2.7,0c-0.5,0.9-1.4,1.4-2,2.3c0.3,0.6,0.4,1.2,0.7,1.9
								c-0.6-0.3-1.3-0.5-1.8-0.8c-0.9,0.5-1.6,1.3-2.3,1.9c0,0-0.1,0-0.1,0c-0.8,0.8-1.9,1.4-2.8,2.1c-1.7,1-3.2,2.2-5,3.1
								c-0.3,0.8-0.6,1.5-1.1,2.2c-0.7-2.9-3.9-3.5-5.9-5.1c0-0.8,0-1.6,0-2.4c1.9,1.4,3.9,2.6,5.9,3.8
								C40.1,41.1,44.1,38.2,47.5,34.7z"/>
						</g>
						<g>
							<path fill="#FFFFFF" d="M44.8,0.1c0,0.9,0.1,2.1-0.1,2.9c-4.9,0-9.9,0-14.8,0c0,2.6,0,5.2,0,7.7c-0.8-0.2-1.8-0.2-2.8-0.2
								c0-3.5,0-7,0-10.4C33,0.1,38.9,0.1,44.8,0.1z"/>
						</g>
						<g>
							<path fill="#FFFFFF" d="M44.8,39.9c-0.1,3.9,0.1,8.1-0.1,11.8c-5.8-0.1-11.9,0.1-17.6-0.1c0.1-0.9-0.1-2.1,0.1-2.8
								c4.9,0,9.8,0,14.7,0c0-2.3,0-4.5,0-6.8C42.8,41.3,43.8,40.7,44.8,39.9C44.7,39.9,44.7,39.9,44.8,39.9z"/>
						</g>
						<g>
							<path fill="#FFFFFF" d="M44.8,11.6c0,0.5,0,1.1,0,1.6C44.6,12.9,44.6,11.9,44.8,11.6z"/>
						</g>
						<g>
							<path fill="#FFFFFF" d="M41,12.9c0.4,0.1,0.1,1,0.2,1.5c-1.5,0.8-3,1.7-4.4,2.7c-1.3,1-2.4,2.3-3.7,3.2
								C34.9,17.3,37.9,14.8,41,12.9z"/>
						</g>
						<g>
							<path fill="#FFFFFF" d="M36.1,14.8c-1.7-0.8-3.7-2.1-6.2-2.2c-0.9,0-1.9,0-2.8,0c-2.7,0.3-4.4,1.1-6.1,2.5
								c-0.5,0.4-1.1,1.3-1.5,1.4c-0.7,0.2-1.4-0.2-2.1,0c0.8-1.1,1.6-2.1,2.7-3c-0.2-0.6-0.3-1.3-0.4-2c0.7,0.3,1.2,0.8,1.9,1.1
								C25.8,9.9,34.1,11.5,36.1,14.8z"/>
						</g>
						<g>
							<path fill="#FFFFFF" d="M29.8,42.2c0,1.1,0,2.1,0,3.2c-0.9-0.1-2.1,0.1-2.8-0.1c0-3.5,0-7,0-10.5c-1,0-2,0-3,0
								c-1-0.8-1.7-1.9-2.5-2.9c2.8,0,5.5,0,8.3,0c0,2.6,0,5.3,0,7.9C29.8,40.5,29.8,41.3,29.8,42.2z"/>
						</g>
						<g>
							<path fill="#FFFFFF" d="M29.8,12.5C29.8,15,30,17.7,29.8,20c-3.9,0-7.8,0-11.7,0c-0.7,0.1-1.5-0.1-2.1,0.1
								c-0.9-0.2-2.2,0-3.3-0.1c0,3.9,0,7.8,0,11.7c1.6,0.2,3.7,0,5.5,0.1c0.8,0.8,1.6,2.1,2.1,2.9c-3.5,0-7,0-10.5,0
								c0-5.8,0-11.7,0-17.5c5.7-0.1,11.7,0.1,17.2-0.1c0-1.5,0-3,0-4.6C28,12.5,28.9,12.5,29.8,12.5z"/>
						</g>
						<g>
							<path fill="#FFFFFF" d="M26.3,37c0.2,0.6-0.1,1.4,0,2.4c-0.7-0.4-1.1-1-1.8-1.4c-0.6,0.3-1.1,0.7-1.9,0.8
								c0.2-0.6,0.5-1.3,0.7-2c-3.7-4.3-8-8.5-7.4-16.9c0.5-0.2,1.4,0,2.1-0.1c-0.5,1.9-0.2,4.2,0.4,5.9c0.7,0,1.4,0,2.1,0
								c-0.4,0.6-1.4,1.1-1.5,1.8c0.7,1.5,1.5,3,2.5,4.2c0.8,1,1.5,2.1,2.5,2.9C24.4,35.6,26,36,26.3,37z"/>
						</g>
					</g>
				</g>
			</g>
			<g>
				<g>
					<g>
						<line fill="#FFFFFF" x1="69.7" y1="35" x2="235.7" y2="35"/>
					</g>
				</g>
				<g>
					<g>
						<rect x="69.7" y="34.8" fill="#FFFFFF" width="166.1" height="0.5"/>
					</g>
				</g>
			</g>
			<g>
				<g>
					<path fill="#FFFFFF" d="M71.1,28.3h-1V0h1V28.3z"/>
				</g>
				<g>
					<path fill="#FFFFFF" d="M76,18.1c0-2.9,0.8-5.2,2.4-7.1c1.6-1.8,3.7-2.7,6.2-2.7c2.5,0,4.6,0.9,6.2,2.7
						c1.6,1.8,2.4,4.2,2.4,7.1v0.8c0,2.9-0.8,5.2-2.4,7.1c-1.6,1.8-3.6,2.7-6.2,2.7c-2.5,0-4.6-0.9-6.2-2.7
						c-1.6-1.8-2.4-4.2-2.4-7.1V18.1z M77,18.8c0,2.5,0.7,4.6,2.1,6.3c1.4,1.7,3.2,2.6,5.6,2.6c2.3,0,4.1-0.9,5.5-2.6
						c1.4-1.7,2.1-3.8,2.1-6.3v-0.8c0-2.4-0.7-4.5-2.1-6.2c-1.4-1.7-3.2-2.6-5.5-2.6c-2.3,0-4.2,0.9-5.5,2.6
						c-1.4,1.7-2.1,3.8-2.1,6.2V18.8z"/>
				</g>
				<g>
					<path fill="#FFFFFF" d="M102.4,24.1l0.9,2.6h0.1l0.9-2.6l6-15.5h1.1l-7.6,19.6l0,0h-0.9L95.3,8.7h1.1L102.4,24.1z"/>
				</g>
				<g>
					<path fill="#FFFFFF" d="M122,28.7c-2.3,0-4.3-0.9-5.8-2.7c-1.6-1.8-2.4-4-2.4-6.8v-1.2c0-2.8,0.8-5.2,2.4-7
						c1.6-1.8,3.6-2.7,6-2.7c2.2,0,3.9,0.7,5.2,2.1c1.3,1.4,1.9,3.4,1.9,5.9v1.5h-14.5v0.2v1.2c0,2.4,0.7,4.4,2,6
						c1.4,1.6,3.1,2.4,5.2,2.4c1.2,0,2.3-0.2,3.4-0.7c1.1-0.4,2-1,2.6-1.7l0.5,0.8c-0.7,0.8-1.6,1.4-2.7,1.9
						C124.8,28.4,123.5,28.7,122,28.7z M122.1,9.3c-2,0-3.7,0.7-5,2.1c-1.3,1.4-2,3.2-2.2,5.3l0.1,0.1h13.3v-0.6c0-2-0.5-3.7-1.6-5
						C125.5,9.9,124,9.3,122.1,9.3z"/>
				</g>
				<g>
					<path fill="#FFFFFF" d="M142.6,9.4l-1.3-0.1c-1.8,0-3.2,0.6-4.3,1.7c-1.1,1.1-1.8,2.6-2.1,4.5v12.9h-1V8.7h0.8l0.2,3.4v0.7
						c0.5-1.4,1.4-2.5,2.4-3.3c1.1-0.8,2.4-1.2,4-1.2c0.3,0,0.5,0,0.8,0.1c0.2,0,0.4,0.1,0.6,0.1L142.6,9.4z"/>
				</g>
				<g>
					<path fill="#FFFFFF" d="M158.4,23.5c0-1-0.4-2-1.3-2.8c-0.9-0.9-2.4-1.5-4.6-2c-2.3-0.5-4-1.1-5.1-1.9s-1.6-1.9-1.6-3.5
						c0-1.4,0.6-2.6,1.8-3.5c1.2-0.9,2.8-1.4,4.8-1.4c2.2,0,3.9,0.5,5.1,1.5c1.2,1,1.8,2.3,1.8,4l0,0.1h-0.8c0-1.3-0.5-2.4-1.6-3.3
						c-1.1-0.9-2.5-1.4-4.4-1.4c-1.8,0-3.2,0.4-4.2,1.2c-0.9,0.8-1.4,1.7-1.4,2.7c0,1,0.4,1.9,1.2,2.6c0.8,0.7,2.4,1.4,4.7,1.9
						c2.2,0.5,3.8,1.2,5,2.1c1.1,0.9,1.7,2.1,1.7,3.7c0,1.5-0.6,2.8-1.9,3.7c-1.3,1-2.9,1.4-5,1.4c-2.3,0-4.1-0.5-5.4-1.5
						c-1.3-1-1.9-2.3-1.8-3.7l0-0.1h0.8c0.1,1.5,0.8,2.7,2,3.4c1.2,0.7,2.7,1,4.4,1c1.8,0,3.3-0.4,4.3-1.3
						C157.8,25.6,158.4,24.6,158.4,23.5z"/>
				</g>
				<g>
					<path fill="#FFFFFF" d="M174.9,28.3h-1V0h1V28.3z"/>
				</g>
				<g>
					<path fill="#FFFFFF" d="M193.7,24.6c-0.7,1.2-1.7,2.1-3,2.9c-1.3,0.7-3,1.1-4.9,1.1c-1.8,0-3.3-0.5-4.3-1.5c-1-1-1.6-2.3-1.6-4
						c0-1.6,0.8-3,2.3-4.1c1.6-1.1,3.5-1.7,5.8-1.7h5.6v-2.9c0-1.6-0.5-2.9-1.6-3.8s-2.5-1.4-4.4-1.4c-1.8,0-3.2,0.4-4.3,1.3
						c-1.1,0.9-1.6,2-1.6,3.3l-0.8,0l0-0.1c-0.1-1.5,0.5-2.8,1.8-3.9c1.3-1.1,2.9-1.6,5-1.6c2.1,0,3.8,0.5,5.1,1.6
						c1.3,1.1,1.9,2.6,1.9,4.6v9.8c0,0.7,0,1.4,0.1,2c0.1,0.7,0.2,1.3,0.4,1.9h-1.1c-0.2-0.9-0.3-1.5-0.3-1.9
						c-0.1-0.4-0.1-0.9-0.1-1.4V24.6z M185.8,27.7c1.9,0,3.6-0.4,4.9-1.3c1.3-0.9,2.3-2.1,3-3.7v-4.4h-5.5c-2,0-3.7,0.5-5.1,1.4
						c-1.4,0.9-2.1,2.1-2.1,3.5c0,1.3,0.4,2.4,1.3,3.2C183.1,27.3,184.3,27.7,185.8,27.7z"/>
				</g>
				<g>
					<path fill="#FFFFFF" d="M201.8,8.7l0.1,4c0.6-1.4,1.5-2.4,2.6-3.2s2.5-1.1,4.2-1.1c2.1,0,3.7,0.7,4.8,2s1.6,3.5,1.6,6.4v11.5
						h-1V16.7c0-2.7-0.5-4.6-1.5-5.7c-1-1.1-2.3-1.7-4-1.7c-2.1,0-3.6,0.6-4.7,1.8c-1.1,1.2-1.8,2.7-2.1,4.6v12.6h-1v-10h-0.1
						c0-0.2,0-0.5,0-0.7c0-0.2,0-0.5,0-0.7V8.7H201.8z"/>
				</g>
				<g>
					<path fill="#FFFFFF" d="M228.1,28.7c-2.3,0-4.3-0.9-5.8-2.7c-1.6-1.8-2.4-4-2.4-6.8v-1.2c0-2.8,0.8-5.2,2.4-7s3.6-2.7,6-2.7
						c2.2,0,3.9,0.7,5.2,2.1s1.9,3.4,1.9,5.9v1.5h-14.5v0.2v1.2c0,2.4,0.7,4.4,2,6c1.4,1.6,3.1,2.4,5.2,2.4c1.2,0,2.3-0.2,3.4-0.7
						c1.1-0.4,2-1,2.6-1.7l0.5,0.8c-0.7,0.8-1.6,1.4-2.7,1.9C230.9,28.4,229.6,28.7,228.1,28.7z M228.2,9.3c-2,0-3.7,0.7-5,2.1
						s-2,3.2-2.2,5.3l0.1,0.1h13.3v-0.6c0-2-0.5-3.7-1.6-5C231.6,9.9,230.1,9.3,228.2,9.3z"/>
				</g>
			</g>
			<g>
				<g>
					<path fill="#FFFFFF" d="M75.8,50.3c-0.3,0.5-0.6,0.9-1.1,1.2c-0.5,0.3-1.1,0.4-1.8,0.4c-0.9,0-1.6-0.3-2-0.9
						c-0.5-0.6-0.7-1.6-0.7-2.9v-4.8h0.4v4.8c0,1.1,0.2,2,0.6,2.5c0.4,0.5,1,0.8,1.7,0.8c0.9,0,1.5-0.2,2-0.6c0.5-0.4,0.8-1,0.9-1.7
						v-5.9h0.4v5h0c0,0.1,0,0.1,0,0.2c0,0.1,0,0.1,0,0.2v3.1h-0.4L75.8,50.3z"/>
				</g>
				<g>
					<path fill="#FFFFFF" d="M79.2,43.3l0.1,1.7c0.3-0.6,0.6-1,1.1-1.4c0.5-0.3,1.1-0.5,1.8-0.5c0.9,0,1.6,0.3,2.1,0.9
						c0.5,0.6,0.7,1.5,0.7,2.8v5h-0.4v-5c0-1.2-0.2-2-0.6-2.5c-0.4-0.5-1-0.7-1.7-0.7c-0.9,0-1.6,0.3-2,0.8c-0.5,0.5-0.8,1.2-0.9,2
						v5.4h-0.4v-4.3h0c0-0.1,0-0.2,0-0.3c0-0.1,0-0.2,0-0.3v-3.5H79.2z"/>
				</g>
				<g>
					<path fill="#FFFFFF" d="M88.2,40.6h-0.4v-1.1h0.4V40.6z M88.2,51.8h-0.4v-8.5h0.4V51.8z"/>
				</g>
				<g>
					<path fill="#FFFFFF" d="M91.8,41v2.3h2.1v0.4h-2.1v5.9c0,0.7,0.1,1.2,0.4,1.5c0.2,0.3,0.5,0.4,0.9,0.4c0.1,0,0.3,0,0.4,0
						c0.1,0,0.3,0,0.5-0.1l0.1,0.4c-0.1,0-0.3,0.1-0.4,0.1c-0.1,0-0.3,0-0.5,0c-0.6,0-1-0.2-1.3-0.6c-0.3-0.4-0.4-1-0.4-1.8v-5.9
						h-1.6v-0.4h1.6V41H91.8z"/>
				</g>
				<g>
					<path fill="#FFFFFF" d="M98.9,51.9c-1,0-1.8-0.4-2.5-1.2c-0.7-0.8-1-1.7-1-2.9v-0.5c0-1.2,0.3-2.2,1-3c0.7-0.8,1.5-1.2,2.6-1.2
						c0.9,0,1.7,0.3,2.2,0.9c0.6,0.6,0.8,1.5,0.8,2.5v0.7h-6.3v0.1v0.5c0,1,0.3,1.9,0.9,2.6c0.6,0.7,1.3,1.1,2.3,1.1
						c0.5,0,1-0.1,1.5-0.3c0.5-0.2,0.8-0.4,1.1-0.8l0.2,0.3c-0.3,0.3-0.7,0.6-1.2,0.8C100.1,51.8,99.5,51.9,98.9,51.9z M98.9,43.6
						c-0.9,0-1.6,0.3-2.2,0.9c-0.6,0.6-0.9,1.4-1,2.3l0,0h5.7v-0.3c0-0.9-0.2-1.6-0.7-2.2C100.4,43.8,99.7,43.6,98.9,43.6z"/>
				</g>
				<g>
					<path fill="#FFFFFF" d="M103.6,47.5c0-1.3,0.3-2.4,0.8-3.2c0.6-0.8,1.3-1.2,2.3-1.2c0.7,0,1.2,0.1,1.7,0.4
						c0.5,0.3,0.9,0.7,1.2,1.2v-5.2h0.4v6.4c0,0,0,0,0,0c0,0,0,0,0,0v3.5c0,0,0,0,0,0c0,0,0,0,0,0v2.3h-0.4l0-1.3
						c-0.3,0.5-0.7,0.8-1.2,1.1c-0.5,0.3-1.1,0.4-1.7,0.4c-1,0-1.8-0.4-2.3-1.1c-0.6-0.8-0.8-1.8-0.8-3.1V47.5z M104.1,47.7
						c0,1.2,0.2,2.1,0.7,2.8c0.5,0.7,1.1,1,2,1c0.7,0,1.3-0.2,1.8-0.5c0.5-0.3,0.8-0.8,1.1-1.3v-4c-0.2-0.6-0.5-1.1-1-1.5
						c-0.5-0.4-1.1-0.6-1.9-0.6c-0.9,0-1.6,0.4-2,1.1c-0.5,0.7-0.7,1.7-0.7,2.9V47.7z"/>
				</g>
				<g>
					<path fill="#FFFFFF" d="M116.9,43.3L117,45c0.3-0.6,0.6-1,1.1-1.4c0.5-0.3,1.1-0.5,1.7-0.5c0.7,0,1.3,0.2,1.8,0.5
						c0.5,0.4,0.8,0.9,0.9,1.7c0.2-0.7,0.6-1.3,1.1-1.6c0.5-0.4,1.1-0.6,1.9-0.6c0.9,0,1.6,0.3,2.1,0.9c0.5,0.6,0.7,1.6,0.7,2.9v4.8
						H128v-4.8c0-1.2-0.2-2.1-0.7-2.6c-0.4-0.5-1-0.8-1.8-0.8c-0.9,0-1.5,0.3-2,0.8c-0.5,0.5-0.8,1.2-0.9,2c0,0.1,0,0.2,0,0.3
						c0,0.1,0,0.2,0,0.3v4.8h-0.4v-4.3h0c0-0.1,0-0.2,0-0.3c0-0.1,0-0.2,0-0.3c0-1.2-0.2-2-0.7-2.5c-0.4-0.5-1-0.7-1.7-0.7
						c-0.9,0-1.5,0.2-2,0.7c-0.5,0.5-0.7,1.1-0.9,1.9v5.5h-0.4v-4.3h0c0-0.1,0-0.1,0-0.2c0-0.1,0-0.2,0-0.3v-3.6H116.9z"/>
				</g>
				<g>
					<path fill="#FFFFFF" d="M134,51.9c-1,0-1.8-0.4-2.5-1.2c-0.7-0.8-1-1.7-1-2.9v-0.5c0-1.2,0.3-2.2,1-3c0.7-0.8,1.5-1.2,2.6-1.2
						c0.9,0,1.7,0.3,2.2,0.9c0.6,0.6,0.8,1.5,0.8,2.5v0.7h-6.3v0.1v0.5c0,1,0.3,1.9,0.9,2.6s1.3,1.1,2.3,1.1c0.5,0,1-0.1,1.5-0.3
						c0.5-0.2,0.8-0.4,1.1-0.8l0.2,0.3c-0.3,0.3-0.7,0.6-1.2,0.8C135.2,51.8,134.6,51.9,134,51.9z M134,43.6c-0.9,0-1.6,0.3-2.2,0.9
						c-0.6,0.6-0.9,1.4-1,2.3l0,0h5.7v-0.3c0-0.9-0.2-1.6-0.7-2.2C135.5,43.8,134.9,43.6,134,43.6z"/>
				</g>
				<g>
					<path fill="#FFFFFF" d="M140,41v2.3h2.1v0.4H140v5.9c0,0.7,0.1,1.2,0.4,1.5c0.2,0.3,0.5,0.4,0.9,0.4c0.1,0,0.3,0,0.4,0
						c0.1,0,0.3,0,0.5-0.1l0.1,0.4c-0.1,0-0.3,0.1-0.4,0.1c-0.1,0-0.3,0-0.5,0c-0.6,0-1-0.2-1.3-0.6c-0.3-0.4-0.4-1-0.4-1.8v-5.9
						H138v-0.4h1.6V41H140z"/>
				</g>
				<g>
					<path fill="#FFFFFF" d="M144.5,45.1c0.3-0.6,0.7-1.1,1.2-1.4s1.1-0.5,1.8-0.5c0.9,0,1.6,0.3,2,0.8c0.5,0.6,0.7,1.4,0.7,2.6v5.2
						h-0.4v-5.2c0-1.1-0.2-1.9-0.6-2.4c-0.4-0.5-1-0.7-1.6-0.7c-0.9,0-1.6,0.3-2.1,0.8c-0.5,0.5-0.8,1.2-0.9,2v5.4h-0.4v-4.3h0
						c0-0.1,0-0.2,0-0.3c0-0.1,0-0.1,0-0.2v-7.4h0.4V45.1z"/>
				</g>
				<g>
					<path fill="#FFFFFF" d="M152.2,47.4c0-1.2,0.3-2.3,1-3c0.7-0.8,1.6-1.2,2.7-1.2c1.1,0,2,0.4,2.7,1.2c0.7,0.8,1,1.8,1,3v0.3
						c0,1.2-0.3,2.3-1,3.1c-0.7,0.8-1.6,1.2-2.7,1.2c-1.1,0-2-0.4-2.7-1.2c-0.7-0.8-1-1.8-1-3.1V47.4z M152.7,47.7
						c0,1.1,0.3,2,0.9,2.7c0.6,0.7,1.4,1.1,2.4,1.1c1,0,1.8-0.4,2.4-1.1c0.6-0.7,0.9-1.6,0.9-2.7v-0.3c0-1-0.3-1.9-0.9-2.7
						c-0.6-0.7-1.4-1.1-2.4-1.1c-1,0-1.8,0.4-2.4,1.1c-0.6,0.7-0.9,1.6-0.9,2.7V47.7z"/>
				</g>
				<g>
					<path fill="#FFFFFF" d="M161.3,47.5c0-1.3,0.3-2.4,0.8-3.2c0.6-0.8,1.3-1.2,2.3-1.2c0.7,0,1.2,0.1,1.7,0.4
						c0.5,0.3,0.9,0.7,1.2,1.2v-5.2h0.4v6.4c0,0,0,0,0,0c0,0,0,0,0,0v3.5c0,0,0,0,0,0c0,0,0,0,0,0v2.3h-0.4l0-1.3
						c-0.3,0.5-0.7,0.8-1.2,1.1c-0.5,0.3-1.1,0.4-1.7,0.4c-1,0-1.8-0.4-2.3-1.1c-0.6-0.8-0.8-1.8-0.8-3.1V47.5z M161.7,47.7
						c0,1.2,0.2,2.1,0.7,2.8c0.5,0.7,1.1,1,2,1c0.7,0,1.3-0.2,1.8-0.5c0.5-0.3,0.8-0.8,1.1-1.3v-4c-0.2-0.6-0.5-1.1-1-1.5
						c-0.5-0.4-1.1-0.6-1.9-0.6c-0.9,0-1.6,0.4-2,1.1c-0.5,0.7-0.7,1.7-0.7,2.9V47.7z"/>
				</g>
				<g>
					<path fill="#FFFFFF" d="M171,40.6h-0.4v-1.1h0.4V40.6z M171,51.8h-0.4v-8.5h0.4V51.8z"/>
				</g>
				<g>
					<path fill="#FFFFFF" d="M178.9,49.7c0-0.4-0.2-0.9-0.6-1.2c-0.4-0.4-1.1-0.7-2-0.9c-1-0.2-1.7-0.5-2.2-0.8s-0.7-0.8-0.7-1.5
						c0-0.6,0.3-1.1,0.8-1.5c0.5-0.4,1.2-0.6,2.1-0.6c0.9,0,1.7,0.2,2.2,0.7c0.5,0.4,0.8,1,0.8,1.7l0,0h-0.4c0-0.6-0.2-1-0.7-1.4
						c-0.5-0.4-1.1-0.6-1.9-0.6c-0.8,0-1.4,0.2-1.8,0.5c-0.4,0.3-0.6,0.7-0.6,1.2c0,0.4,0.2,0.8,0.5,1.1c0.3,0.3,1,0.6,2.1,0.8
						c0.9,0.2,1.7,0.5,2.1,0.9c0.5,0.4,0.7,0.9,0.7,1.6c0,0.7-0.3,1.2-0.8,1.6s-1.3,0.6-2.2,0.6c-1,0-1.8-0.2-2.3-0.7
						c-0.6-0.4-0.8-1-0.8-1.6l0,0h0.3c0,0.7,0.3,1.2,0.9,1.4c0.5,0.3,1.2,0.4,1.9,0.4c0.8,0,1.4-0.2,1.9-0.5
						C178.7,50.6,178.9,50.2,178.9,49.7z"/>
				</g>
				<g>
					<path fill="#FFFFFF" d="M182.6,41v2.3h2.1v0.4h-2.1v5.9c0,0.7,0.1,1.2,0.4,1.5c0.2,0.3,0.5,0.4,0.9,0.4c0.1,0,0.3,0,0.4,0
						c0.1,0,0.3,0,0.5-0.1l0.1,0.4c-0.1,0-0.3,0.1-0.4,0.1c-0.1,0-0.3,0-0.5,0c-0.6,0-1-0.2-1.3-0.6c-0.3-0.4-0.4-1-0.4-1.8v-5.9
						h-1.6v-0.4h1.6V41H182.6z"/>
				</g>
				<g>
					<path fill="#FFFFFF" d="M193.4,51.5c0.7,0,1.3-0.2,1.9-0.6c0.5-0.4,0.8-1,0.8-1.8h0.4l0,0c0,0.8-0.3,1.5-0.9,2
						c-0.6,0.5-1.4,0.7-2.2,0.7c-1.1,0-1.9-0.4-2.5-1.2c-0.6-0.8-0.9-1.8-0.9-3.1v-0.3c0-1.3,0.3-2.3,0.9-3.1
						c0.6-0.8,1.5-1.2,2.5-1.2c0.9,0,1.6,0.3,2.2,0.8c0.6,0.5,0.9,1.2,0.9,2.2l0,0h-0.4c0-0.8-0.3-1.5-0.8-1.9
						c-0.5-0.4-1.2-0.7-1.9-0.7c-1,0-1.7,0.4-2.3,1.1c-0.5,0.7-0.8,1.6-0.8,2.7v0.3c0,1.1,0.3,2,0.8,2.8
						C191.6,51.2,192.4,51.5,193.4,51.5z"/>
				</g>
				<g>
					<path fill="#FFFFFF" d="M199.1,45.1c0.3-0.6,0.7-1.1,1.2-1.4c0.5-0.3,1.1-0.5,1.8-0.5c0.9,0,1.6,0.3,2,0.8
						c0.5,0.6,0.7,1.4,0.7,2.6v5.2h-0.4v-5.2c0-1.1-0.2-1.9-0.6-2.4c-0.4-0.5-1-0.7-1.6-0.7c-0.9,0-1.6,0.3-2.1,0.8
						c-0.5,0.5-0.8,1.2-0.9,2v5.4h-0.4v-4.3h0c0-0.1,0-0.2,0-0.3c0-0.1,0-0.1,0-0.2v-7.4h0.4V45.1z"/>
				</g>
				<g>
					<path fill="#FFFFFF" d="M213.1,50.3c-0.3,0.5-0.6,0.9-1.1,1.2c-0.5,0.3-1.1,0.4-1.8,0.4c-0.9,0-1.6-0.3-2-0.9
						c-0.5-0.6-0.7-1.6-0.7-2.9v-4.8h0.4v4.8c0,1.1,0.2,2,0.6,2.5c0.4,0.5,1,0.8,1.7,0.8c0.9,0,1.5-0.2,2-0.6c0.5-0.4,0.8-1,0.9-1.7
						v-5.9h0.4v5h0c0,0.1,0,0.1,0,0.2c0,0.1,0,0.1,0,0.2v3.1h-0.4L213.1,50.3z"/>
				</g>
				<g>
					<path fill="#FFFFFF" d="M220,43.6l-0.5,0c-0.8,0-1.4,0.2-1.8,0.7c-0.5,0.5-0.8,1.1-0.9,1.9v5.6h-0.4v-8.5h0.3l0.1,1.5v0.3
						c0.2-0.6,0.6-1.1,1-1.4c0.5-0.3,1-0.5,1.7-0.5c0.1,0,0.2,0,0.3,0c0.1,0,0.2,0,0.3,0.1L220,43.6z"/>
				</g>
				<g>
					<path fill="#FFFFFF" d="M224.3,51.5c0.7,0,1.3-0.2,1.9-0.6c0.5-0.4,0.8-1,0.8-1.8h0.4l0,0c0,0.8-0.3,1.5-0.9,2
						c-0.6,0.5-1.4,0.7-2.2,0.7c-1.1,0-1.9-0.4-2.5-1.2c-0.6-0.8-0.9-1.8-0.9-3.1v-0.3c0-1.3,0.3-2.3,0.9-3.1
						c0.6-0.8,1.5-1.2,2.5-1.2c0.9,0,1.6,0.3,2.2,0.8c0.6,0.5,0.9,1.2,0.9,2.2l0,0H227c0-0.8-0.3-1.5-0.8-1.9
						c-0.5-0.4-1.2-0.7-1.9-0.7c-1,0-1.7,0.4-2.3,1.1c-0.5,0.7-0.8,1.6-0.8,2.7v0.3c0,1.1,0.3,2,0.8,2.8
						C222.5,51.2,223.3,51.5,224.3,51.5z"/>
				</g>
				<g>
					<path fill="#FFFFFF" d="M230,45.1c0.3-0.6,0.7-1.1,1.2-1.4s1.1-0.5,1.8-0.5c0.9,0,1.6,0.3,2,0.8c0.5,0.6,0.7,1.4,0.7,2.6v5.2
						h-0.4v-5.2c0-1.1-0.2-1.9-0.6-2.4c-0.4-0.5-1-0.7-1.6-0.7c-0.9,0-1.6,0.3-2.1,0.8c-0.5,0.5-0.8,1.2-0.9,2v5.4h-0.4v-4.3h0
						c0-0.1,0-0.2,0-0.3c0-0.1,0-0.1,0-0.2v-7.4h0.4V45.1z"/>
				</g>
			</g>
		</g>
		<g>
			<g>
				
					<rect x="250.8" y="-0.4" transform="matrix(0.963 0.2696 -0.2696 0.963 16.5305 -66.6675)" fill="#FFFFFF" width="0.5" height="54.4"/>
			</g>
		</g>
	</g>
	<g>
		<path fill="#FFFFFF" d="M261.8,32.9c0,2.5,0.7,4.5,2.2,6c1.5,1.5,3.3,2.3,5.6,2.3c1.5,0,2.8-0.4,4-1.2c1.2-0.8,2.1-1.9,2.9-3.2
			l1.6,0.9c-0.9,1.7-2.1,3-3.6,3.9c-1.5,0.9-3.2,1.4-5.1,1.4c-1.4,0-2.7-0.3-3.9-0.8c-1.2-0.5-2.2-1.3-3-2.2c-0.8-0.9-1.5-2-1.9-3.3
			c-0.4-1.2-0.7-2.5-0.7-3.9c0-1.4,0.2-2.7,0.7-3.9c0.4-1.2,1.1-2.3,1.9-3.2c0.8-0.9,1.8-1.7,3-2.2c1.2-0.5,2.4-0.8,3.8-0.8
			c1.4,0,2.7,0.3,3.9,0.8c1.2,0.5,2.2,1.3,3,2.2c0.8,1,1.4,2.1,1.9,3.3c0.4,1.3,0.6,2.6,0.6,4H261.8z M276.9,31.1
			c-0.1-0.9-0.4-1.8-0.8-2.6c-0.4-0.8-0.9-1.5-1.6-2.2c-0.7-0.6-1.4-1.1-2.3-1.5c-0.9-0.4-1.8-0.5-2.7-0.5c-1,0-1.9,0.2-2.8,0.5
			c-0.9,0.4-1.7,0.8-2.4,1.5c-0.7,0.6-1.3,1.4-1.7,2.2s-0.7,1.7-0.8,2.6H276.9z"/>
		<path fill="#FFFFFF" d="M300.5,42.5h-1.9V39h-0.1c-0.7,1.2-1.7,2.2-3.1,2.9c-1.4,0.7-2.8,1.1-4.3,1.1c-1.4,0-2.7-0.3-3.9-0.8
			c-1.2-0.5-2.2-1.3-3.1-2.2c-0.8-0.9-1.5-2-1.9-3.3c-0.5-1.3-0.7-2.6-0.7-4c0-1.4,0.2-2.7,0.7-3.9c0.4-1.2,1.1-2.3,1.9-3.2
			c0.8-0.9,1.9-1.6,3-2.1c1.2-0.5,2.5-0.8,3.9-0.8c1.5,0,2.9,0.3,4.3,1c1.3,0.7,2.4,1.6,3.2,2.8h0.1V23h1.9V42.5z M287.9,25
			c-0.9,0.5-1.7,1.1-2.4,1.9s-1.2,1.7-1.6,2.7c-0.4,1-0.5,2-0.5,3.1c0,1.1,0.2,2.2,0.5,3.2c0.4,1,0.9,1.9,1.6,2.7
			c0.7,0.8,1.5,1.4,2.4,1.9c0.9,0.5,2,0.7,3.1,0.7c2.4,0,4.3-0.8,5.6-2.5c1.4-1.7,2-3.8,2-6.2c0-2.3-0.7-4.2-2.2-5.8
			c-1.4-1.5-3.3-2.3-5.7-2.3C289.8,24.3,288.8,24.6,287.9,25z"/>
		<path fill="#FFFFFF" d="M315.2,26.5c-0.3-0.7-0.8-1.2-1.4-1.6c-0.6-0.4-1.3-0.6-2-0.6c-0.8,0-1.6,0.3-2.3,0.9
			c-0.7,0.6-1,1.3-1,2.1c0,0.9,0.3,1.6,1,2.1c0.7,0.5,1.7,1,3,1.5c0.9,0.3,1.6,0.6,2.2,0.9c0.6,0.3,1.1,0.6,1.6,1
			c0.5,0.4,0.9,1,1.2,1.6c0.3,0.6,0.5,1.4,0.5,2.4c0,1.8-0.6,3.2-1.8,4.4c-1.2,1.1-2.7,1.7-4.5,1.7c-1.6,0-3.1-0.5-4.3-1.4
			c-1.2-0.9-2-2.2-2.4-3.8l1.9-0.6c0.4,1.2,1,2.2,1.8,2.9s1.8,1.1,3.1,1.1c1.2,0,2.3-0.4,3.1-1.3c0.8-0.8,1.3-1.9,1.3-3.1
			c0-1.1-0.3-1.9-1-2.4c-0.6-0.5-1.6-1-2.8-1.4c-0.9-0.3-1.7-0.6-2.3-0.9c-0.6-0.3-1.1-0.6-1.7-1c-0.5-0.4-1-0.9-1.3-1.5
			c-0.3-0.6-0.5-1.3-0.5-2c0-1.4,0.5-2.6,1.6-3.5c1-0.9,2.3-1.4,3.8-1.4c1,0,2,0.3,2.9,0.9c1,0.6,1.6,1.3,2.1,2.2L315.2,26.5z"/>
		<path fill="#FFFFFF" d="M324.9,42.5H323V24.7h-2.2V23h2.2v-7h1.9v7h3.4v1.8h-3.4V42.5z"/>
		<path fill="#FFFFFF" d="M331.6,32.9c0,2.5,0.7,4.5,2.2,6c1.5,1.5,3.3,2.3,5.6,2.3c1.5,0,2.8-0.4,4-1.2c1.2-0.8,2.1-1.9,2.9-3.2
			l1.6,0.9c-0.9,1.7-2.1,3-3.6,3.9c-1.5,0.9-3.2,1.4-5.1,1.4c-1.4,0-2.7-0.3-3.9-0.8c-1.2-0.5-2.2-1.3-3-2.2c-0.8-0.9-1.5-2-1.9-3.3
			c-0.4-1.2-0.7-2.5-0.7-3.9c0-1.4,0.2-2.7,0.7-3.9c0.4-1.2,1.1-2.3,1.9-3.2c0.8-0.9,1.8-1.7,3-2.2c1.2-0.5,2.4-0.8,3.8-0.8
			c1.4,0,2.7,0.3,3.9,0.8c1.2,0.5,2.2,1.3,3,2.2c0.8,1,1.4,2.1,1.9,3.3c0.4,1.3,0.6,2.6,0.6,4H331.6z M346.6,31.1
			c-0.1-0.9-0.4-1.8-0.8-2.6c-0.4-0.8-0.9-1.5-1.6-2.2c-0.7-0.6-1.4-1.1-2.3-1.5c-0.9-0.4-1.8-0.5-2.7-0.5c-1,0-1.9,0.2-2.8,0.5
			c-0.9,0.4-1.7,0.8-2.4,1.5c-0.7,0.6-1.3,1.4-1.7,2.2s-0.7,1.7-0.8,2.6H346.6z"/>
		<path fill="#FFFFFF" d="M355,25.5L355,25.5c0.5-0.9,1-1.7,1.8-2.2c0.7-0.5,1.6-0.8,2.6-0.8c0.7,0,1.4,0.2,2.1,0.5l-1,1.7
			c-0.4-0.3-0.9-0.4-1.3-0.4c-0.9,0-1.6,0.2-2.2,0.7s-1,1.1-1.2,1.8c-0.3,0.8-0.4,1.6-0.5,2.5c-0.1,0.9-0.1,2-0.1,3.2v10h-1.9V23
			h1.9V25.5z"/>
		<path fill="#FFFFFF" d="M397.2,40.6v1.9h-19.6l11.9-13l0.3-0.4c0.9-1,1.6-1.8,2.1-2.4c0.5-0.6,1.1-1.4,1.6-2.2
			c0.5-0.8,0.9-1.6,1.3-2.5c0.3-0.9,0.5-1.7,0.5-2.6c0-1-0.2-2-0.6-2.9c-0.4-0.9-0.9-1.7-1.6-2.3c-0.7-0.7-1.5-1.2-2.4-1.5
			c-0.9-0.4-1.9-0.5-2.9-0.5c-2.2,0-4,0.7-5.4,2.1c-1.4,1.4-2.1,3.2-2.1,5.4h-2c0.1-1.3,0.2-2.4,0.5-3.4c0.3-0.9,0.8-1.8,1.5-2.7
			c0.9-1,2.1-1.9,3.4-2.5c1.4-0.6,2.7-0.9,4.1-0.9c1.3,0,2.5,0.2,3.7,0.7c1.2,0.5,2.2,1.1,3.1,2c0.9,0.8,1.6,1.8,2,3
			c0.5,1.2,0.7,2.4,0.7,3.7c0,1.9-0.5,3.6-1.5,5.1c-1,1.5-2.4,3.4-4.3,5.4l-0.2,0.2l-9.2,10.3H397.2z"/>
		<path fill="#FFFFFF" d="M418.9,11.7c1.5,1,2.7,2.3,3.6,3.9c1,1.6,1.7,3.4,2.2,5.2c0.5,1.9,0.7,3.7,0.7,5.4s-0.2,3.6-0.7,5.5
			s-1.2,3.7-2.1,5.4c-1,1.7-2.2,3.1-3.6,4.1s-3.2,1.6-5.1,1.6c-1.9,0-3.6-0.5-5.1-1.6c-1.5-1-2.7-2.4-3.6-4.1
			c-1-1.7-1.7-3.5-2.1-5.4s-0.7-3.7-0.7-5.5s0.2-3.5,0.7-5.4c0.5-1.9,1.2-3.6,2.2-5.3c1-1.6,2.2-2.9,3.6-3.9c1.5-1,3.1-1.5,5-1.5
			C415.8,10.2,417.4,10.7,418.9,11.7z M418.1,39.6c1.2-0.9,2.2-2.1,3-3.6c0.8-1.5,1.4-3.1,1.7-4.8c0.4-1.7,0.5-3.3,0.5-4.8
			c0-1.3-0.2-2.8-0.6-4.5c-0.4-1.6-1-3.2-1.7-4.7c-0.8-1.5-1.8-2.7-3-3.6c-1.2-0.9-2.6-1.4-4.2-1.4s-3,0.5-4.2,1.4s-2.2,2.2-3,3.6
			c-0.8,1.5-1.3,3.1-1.7,4.7c-0.4,1.6-0.6,3.1-0.6,4.5c0,1.5,0.2,3.2,0.6,4.8c0.4,1.7,1,3.3,1.7,4.8c0.8,1.5,1.8,2.7,3,3.6
			c1.2,0.9,2.6,1.4,4.2,1.4S416.9,40.5,418.1,39.6z"/>
		<path fill="#FFFFFF" d="M434.9,12.6l1-1.9h6.1v31.8h-2V12.6H434.9z"/>
		<path fill="#FFFFFF" d="M464.9,12.6l-2.7,8.6c0.7-0.2,1.5-0.3,2.4-0.3c1.5,0,2.9,0.3,4.2,0.8c1.3,0.5,2.5,1.3,3.5,2.3
			c1,1,1.8,2.2,2.3,3.5s0.8,2.7,0.8,4.2c0,1.6-0.3,3.1-0.9,4.4c-0.6,1.4-1.4,2.6-2.4,3.6c-1.1,1-2.3,1.8-3.7,2.4
			c-1.4,0.5-2.9,0.8-4.5,0.8c-1.9,0-3.7-0.5-5.4-1.4c-1.7-0.9-3-2.2-4-3.9l1.9-0.8c0.8,1.2,1.9,2.2,3.3,3c1.4,0.8,2.8,1.1,4.3,1.1
			c1.3,0,2.6-0.2,3.7-0.7s2.1-1.1,3-2c0.9-0.9,1.5-1.9,2-3s0.7-2.4,0.7-3.7c0-1.2-0.2-2.4-0.7-3.5c-0.5-1.1-1.2-2-2-2.8
			c-0.9-0.8-1.8-1.4-3-1.9c-1.1-0.4-2.3-0.7-3.5-0.7c-0.9,0-1.7,0.1-2.5,0.4c-0.8,0.2-1.5,0.6-2.4,1.1l4.1-13.5h12.1v1.9H464.9z"/>
	</g>
</g>
</svg>
